<?xml version="1.0" standalone="no"?>
<!DOCTYPE svg PUBLIC "-//W3C//DTD SVG 20010904//EN"
 "http://www.w3.org/TR/2001/REC-SVG-20010904/DTD/svg10.dtd">
<svg version="1.0" xmlns="http://www.w3.org/2000/svg"
 width="1000.000000pt" height="1414.000000pt" viewBox="0 0 1000.000000 1414.000000"
 preserveAspectRatio="xMidYMid meet">
<metadata>
Created by potrace 1.15, written by Peter Selinger 2001-2017
</metadata>
<g transform="translate(0.000000,1414.000000) scale(0.100000,-0.100000)"
fill="#000000" stroke="none">
<path d="M4630 13109 c-57 -8 -130 -36 -165 -62 -38 -29 -10 -26 55 6 61 30
72 32 170 32 95 0 111 -3 168 -29 35 -16 74 -42 87 -57 47 -56 41 -130 -14
-183 -25 -24 -28 -31 -20 -64 9 -42 61 -95 84 -86 8 4 15 1 15 -5 0 -14 -47
-15 -55 -1 -10 17 -172 11 -300 -10 -167 -28 -160 -29 -160 26 0 40 2 44 20
40 17 -4 16 -2 -4 12 -105 74 -138 139 -109 220 20 54 5 65 -16 12 -30 -76
-16 -135 48 -205 55 -60 57 -82 10 -123 -59 -51 -200 -156 -394 -292 -632
-445 -1176 -964 -1582 -1511 -63 -85 -165 -245 -190 -299 -65 -140 -122 -368
-122 -491 l-1 -86 90 -90 c89 -88 225 -186 311 -224 24 -11 44 -23 44 -28 0
-4 -11 -41 -25 -82 -58 -169 -103 -385 -131 -641 -13 -115 -18 -242 -18 -508
-1 -329 1 -362 21 -453 35 -160 89 -255 140 -245 12 2 16 20 18 78 2 41 11
109 20 150 35 167 57 250 66 250 5 0 9 -6 9 -14 0 -15 161 -422 209 -528 39
-87 90 -162 187 -273 83 -96 94 -106 105 -99 4 2 5 91 2 197 -5 187 2 298 28
417 10 47 13 52 23 36 69 -114 217 -313 259 -346 81 -65 89 -55 61 80 -8 41
-21 119 -28 173 l-13 97 26 -24 c42 -39 102 -76 124 -76 19 0 20 4 14 143 -4
78 -13 171 -21 206 l-14 63 37 -34 c84 -79 116 -108 124 -108 4 0 7 -28 7 -63
0 -34 4 -78 10 -97 7 -25 6 -54 -5 -107 -8 -40 -15 -103 -15 -141 0 -50 -4
-73 -15 -82 -27 -22 -73 -114 -104 -205 -21 -64 -51 -121 -103 -200 -40 -60
-102 -167 -136 -237 -61 -122 -65 -136 -127 -410 -77 -346 -86 -387 -130 -608
-101 -502 -185 -1098 -185 -1311 0 -54 1 -56 51 -100 29 -24 62 -49 73 -56 20
-10 21 -17 16 -71 -9 -92 6 -246 27 -290 13 -27 34 -45 78 -69 63 -34 195 -69
221 -59 8 3 24 0 35 -7 17 -10 22 -9 32 4 7 8 21 18 33 21 19 5 21 2 17 -46
-10 -145 -31 -301 -60 -461 -77 -427 -76 -415 -26 -447 20 -13 40 -25 45 -28
4 -3 3 -22 -3 -42 -21 -78 -101 -480 -125 -628 -13 -85 -27 -214 -31 -285 l-6
-130 43 -39 c43 -39 95 -66 128 -66 16 0 19 16 30 162 7 90 20 222 30 293 l17
130 7 -180 c8 -206 21 -329 45 -432 15 -64 21 -76 52 -97 62 -43 312 -142 430
-171 l113 -28 -5 -50 c-4 -41 -10 -54 -33 -71 -55 -38 -93 -86 -133 -167 -45
-90 -48 -106 -26 -170 13 -37 22 -47 58 -62 65 -28 247 -41 447 -32 96 5 217
9 268 9 92 1 94 2 108 29 12 21 14 62 12 180 -1 84 2 183 6 220 l9 68 151 -6
c83 -3 162 -9 176 -12 14 -3 49 -5 78 -4 48 2 53 0 49 -16 -14 -48 -18 -197
-7 -242 20 -84 25 -86 234 -87 99 -1 213 -7 251 -13 95 -15 182 -13 295 4 52
8 150 15 217 15 119 0 123 1 139 25 30 46 2 139 -65 208 -62 66 -241 159 -334
174 -37 6 -38 6 -35 46 l3 40 70 17 c104 25 289 79 385 111 47 16 100 34 118
40 49 16 207 115 210 132 2 8 14 20 27 27 24 13 40 50 27 60 -34 24 -122 359
-202 767 -28 144 -59 291 -70 327 l-18 65 41 24 c40 21 42 25 39 62 -3 36 -38
338 -61 525 -6 41 -15 129 -21 195 -6 66 -17 179 -24 250 -16 164 -9 182 66
150 26 -11 32 17 20 88 l-11 62 5 -67 c4 -46 2 -68 -6 -68 -13 0 -110 93 -110
106 0 5 22 17 50 27 27 10 79 38 116 62 37 25 68 45 70 45 2 0 4 -20 4 -45 0
-64 -35 -147 -84 -202 l-44 -48 -37 13 c-20 8 -39 11 -42 8 -5 -5 55 -46 68
-46 25 0 93 74 124 134 29 57 35 79 35 132 0 61 2 67 44 118 24 30 55 79 69
109 23 52 25 62 16 123 -5 36 -13 85 -19 107 -14 63 -39 205 -45 262 -14 120
-28 197 -55 300 -16 61 -39 160 -50 220 -31 159 -68 293 -189 685 -58 187 -90
282 -133 390 -17 41 -45 118 -63 170 -39 109 -103 245 -145 304 -62 87 -254
267 -355 331 -108 70 -306 147 -412 162 -51 7 -59 16 -65 66 -3 32 -1 37 17
37 27 0 272 75 348 106 34 14 80 36 102 48 22 13 81 40 130 61 118 50 180 84
295 161 171 113 314 264 387 408 54 107 56 178 8 366 -36 142 -37 149 -38 350
l-1 205 43 122 c41 116 45 122 74 129 18 4 50 15 72 25 22 10 101 41 175 70
234 92 429 199 560 308 62 51 71 61 104 111 32 49 23 102 -38 216 -142 261
-349 528 -641 820 -461 464 -858 744 -1490 1054 -242 119 -454 199 -572 215
-26 4 -58 13 -69 21 -31 19 -39 61 -17 91 45 64 53 81 53 117 0 65 -39 119
-112 154 -35 17 -85 33 -113 37 -27 3 -59 7 -70 9 -11 2 -45 0 -75 -5z m759
-1095 c13 8 43 -29 123 -154 182 -282 325 -574 272 -553 -8 3 -11 9 -8 14 3 5
-1 6 -9 3 -10 -3 -34 32 -82 118 -77 139 -175 302 -276 460 -73 114 -83 136
-49 118 11 -6 24 -9 29 -6z m-113 -21 c58 -63 314 -631 314 -697 0 -9 -8 -16
-19 -16 -14 0 -31 31 -77 138 -32 75 -109 238 -170 362 -108 215 -116 239 -81
240 4 0 19 -12 33 -27z m290 4 c8 3 14 1 14 -5 0 -6 11 -9 25 -7 14 1 25 -1
25 -5 0 -4 7 -7 15 -8 8 -1 21 -3 29 -4 8 -1 12 -7 9 -14 -3 -8 6 -11 30 -7
29 4 36 1 42 -16 3 -12 11 -19 16 -16 5 4 12 -1 15 -9 3 -9 10 -14 14 -11 4 3
11 -2 14 -11 4 -9 9 -14 12 -11 3 3 16 -5 29 -18 12 -14 25 -22 28 -18 4 3 7
-6 7 -20 0 -15 5 -27 10 -27 6 0 10 -10 10 -22 0 -17 3 -19 9 -9 8 13 14 -3
28 -89 l5 -35 -26 24 c-31 29 -35 15 -5 -23 15 -19 19 -35 15 -59 -5 -24 -4
-27 3 -12 8 16 10 17 10 3 1 -9 4 -23 7 -32 3 -9 1 -16 -6 -16 -6 0 -9 4 -6 8
3 5 -1 9 -8 9 -11 0 -12 -6 -4 -23 8 -17 7 -28 -4 -43 -14 -20 -17 -19 -63 51
-62 93 -226 314 -299 400 -50 60 -55 68 -39 77 10 5 19 6 21 1 2 -5 10 -6 18
-3z m-351 -97 c73 -146 215 -487 246 -592 6 -22 4 -28 -8 -28 -9 0 -13 3 -10
7 4 3 -3 11 -14 17 -15 8 -51 83 -123 256 -56 135 -119 282 -139 326 -38 83
-45 110 -27 99 6 -3 10 -1 10 5 0 25 23 -7 65 -90z m-46 -120 c32 -75 83 -202
112 -284 44 -123 50 -149 38 -157 -19 -11 -38 14 -68 94 -13 34 -61 150 -106
257 -95 225 -99 237 -76 243 26 6 37 -11 100 -153z m711 -1000 c163 -10 419
-35 606 -60 387 -53 1123 -207 1144 -240 3 -5 36 -17 73 -26 37 -9 67 -21 67
-27 0 -11 -39 -77 -46 -77 -2 0 -12 4 -22 10 -37 20 -334 87 -572 129 -671
118 -1383 143 -2135 75 -593 -53 -1313 -171 -1930 -315 -253 -59 -507 -134
-745 -220 -142 -51 -150 -51 -150 1 0 42 12 70 29 70 9 0 62 22 118 50 534
263 1283 466 2101 569 156 20 566 57 702 64 158 8 600 6 760 -3z m250 -200
c190 -9 429 -28 588 -47 68 -8 73 -18 102 -188 42 -245 29 -374 -66 -645 l-36
-105 5 -205 c4 -196 6 -211 42 -350 42 -167 43 -220 1 -314 -86 -194 -335
-417 -611 -547 -251 -118 -690 -234 -879 -231 -143 2 -480 62 -605 107 -36 13
-69 21 -74 18 -6 -3 -7 -2 -4 4 3 5 -12 18 -34 27 -25 11 -77 56 -133 115 -50
53 -107 112 -127 131 -20 19 -52 61 -72 92 -20 31 -51 74 -69 95 -62 71 -94
118 -152 223 -32 58 -108 191 -168 297 -60 106 -141 263 -181 350 l-72 158 1
120 c2 252 90 550 197 669 l32 35 220 35 c834 134 1500 184 2095 156z m-2830
-1115 c28 -14 81 -55 118 -92 69 -67 117 -103 140 -103 7 0 17 11 24 24 10 23
16 13 90 -136 169 -346 380 -659 597 -890 35 -37 60 -68 55 -68 -30 0 -306
156 -504 285 -150 97 -165 105 -204 105 -20 0 -51 -8 -69 -17 -41 -22 -159
-21 -247 2 -154 40 -322 181 -399 335 -37 73 -41 90 -41 154 0 177 98 343 244
413 63 30 121 26 196 -12z m1340 -1479 c52 -14 120 -28 150 -32 30 -4 93 -15
140 -26 l85 -18 -105 6 c-58 3 -163 14 -234 25 -149 22 -209 48 -214 91 l-3
27 43 -24 c24 -13 86 -35 138 -49z m764 -253 c3 -10 13 -65 22 -122 l16 -104
-24 -19 c-39 -31 -102 -66 -131 -74 -33 -8 -34 -26 12 191 29 140 24 132 93
144 4 0 9 -7 12 -16z m-458 -25 c73 -8 127 -8 195 0 52 5 95 9 96 8 6 -5 -85
-308 -94 -317 -7 -7 -44 -11 -88 -11 -83 1 -117 17 -210 96 l-39 33 -4 108 -4
108 23 -7 c13 -3 69 -11 125 -18z m490 -1275 c-12 -3 -15 -7 -7 -12 8 -5 7
-12 -4 -27 -13 -18 -14 -18 -9 6 5 22 4 23 -6 7 -12 -19 -5 -57 11 -57 6 0 7
5 3 12 -4 6 3 4 17 -5 13 -10 43 -17 69 -17 49 0 70 -13 70 -43 0 -14 -4 -17
-17 -12 -35 15 -63 17 -63 6 0 -21 2 -26 11 -23 11 3 11 -9 0 -27 -12 -19 -57
-7 -71 19 -8 14 -8 26 0 40 10 18 7 20 -40 19 -37 -1 -59 4 -79 18 l-27 20
-29 -23 c-22 -18 -43 -24 -77 -24 -46 0 -47 -1 -37 -24 13 -27 -2 -66 -26 -66
-7 0 -20 -2 -28 -5 -16 -7 -20 26 -3 37 8 5 7 11 -2 20 -6 6 -12 23 -12 36 0
23 2 24 58 18 47 -6 63 -3 90 14 18 11 30 25 27 30 -4 6 -1 9 6 8 7 -2 16 10
19 27 6 27 8 28 15 10 12 -30 36 -55 47 -49 4 3 7 0 6 -7 -3 -13 31 -26 70
-28 12 -1 22 4 22 10 0 5 -5 7 -11 4 -14 -9 -49 24 -49 47 0 10 -7 18 -15 18
-8 0 -15 5 -15 10 0 14 13 13 28 -2 10 -9 16 -8 29 5 10 9 24 16 33 16 10 -1
9 -3 -4 -6z m-455 -242 c-12 -23 -3 -41 17 -34 14 4 15 3 2 -6 -9 -6 -18 -7
-24 -1 -6 6 -17 10 -25 10 -13 -1 -12 -4 3 -15 11 -8 16 -18 11 -22 -4 -5 -10
-2 -12 5 -3 6 -12 12 -20 12 -14 0 -13 -3 3 -21 18 -20 18 -20 -9 -14 -19 5
-28 3 -33 -8 -3 -9 -11 -13 -19 -11 -19 8 -56 -46 -53 -75 3 -28 28 -42 28
-15 0 14 3 15 12 6 9 -9 14 -8 22 4 9 12 11 10 11 -10 0 -13 -3 -22 -7 -19 -5
2 -8 -5 -8 -16 0 -28 -36 -46 -65 -33 -22 10 -22 9 -17 -33 3 -34 -1 -53 -17
-81 l-22 -37 22 -23 c14 -15 24 -41 27 -73 4 -46 6 -49 23 -40 39 21 95 -42
60 -67 -12 -9 -18 -8 -27 5 -12 15 -13 14 -20 -3 -4 -10 -3 -30 2 -45 11 -31
80 -72 109 -64 17 5 18 4 6 -11 -12 -14 -11 -16 3 -16 9 0 16 5 16 11 0 8 5 7
15 -1 9 -7 15 -20 14 -29 -3 -26 18 -67 47 -90 31 -25 74 -28 74 -6 0 8 -5 15
-11 15 -8 0 -8 4 0 14 9 11 9 15 -1 18 -7 3 -3 7 10 10 12 4 20 2 16 -3 -3 -5
1 -9 9 -9 8 0 20 -6 27 -14 6 -8 19 -12 28 -9 11 3 13 2 6 -4 -10 -8 -34 -47
-34 -56 0 -3 20 -2 44 0 35 4 53 0 81 -17 l36 -22 25 23 c20 19 37 24 75 24
47 0 60 7 39 20 -18 11 -10 44 15 61 14 9 22 21 19 28 -4 6 4 1 17 -11 18 -18
21 -25 11 -35 -16 -16 -15 -25 4 -32 43 -17 112 69 99 122 -6 26 -6 26 14 8
19 -17 21 -17 21 -3 0 10 -4 17 -10 17 -5 0 -7 7 -3 16 3 8 15 14 27 13 32 -3
71 16 95 47 25 31 28 74 6 74 -8 0 -15 -4 -15 -9 0 -17 -37 -8 -50 12 -6 11
-7 17 -2 13 5 -3 18 7 29 23 16 20 18 32 11 47 -8 16 -7 17 4 4 7 -8 25 -23
39 -32 l25 -16 -3 51 c-3 38 1 60 15 82 18 29 18 30 -5 64 -15 23 -23 48 -23
78 l0 44 -30 -21 c-17 -12 -29 -17 -28 -12 2 6 -5 17 -14 24 -9 7 -20 24 -23
38 -5 21 -2 26 14 27 12 1 21 -2 21 -8 0 -5 7 -9 15 -9 22 0 19 43 -6 74 -22
29 -35 33 -42 14 -2 -7 -3 -5 -1 5 2 19 -36 34 -56 22 -9 -6 -9 -2 -1 14 9 17
9 21 -2 21 -8 0 -14 6 -14 14 0 20 25 8 32 -15 4 -12 16 -19 31 -19 31 0 73
-21 98 -49 17 -18 31 -74 38 -141 4 -44 77 -18 79 28 2 24 2 25 6 4 3 -13 -2
-33 -10 -45 -12 -19 -12 -24 0 -36 20 -18 7 -27 -14 -10 -10 9 -31 21 -46 27
-19 8 -27 18 -23 27 3 8 0 15 -6 15 -14 0 -3 -56 18 -87 8 -13 19 -21 25 -18
5 4 8 1 7 -7 -2 -8 6 -13 19 -12 12 0 20 -3 17 -8 -3 -4 5 -8 18 -8 32 0 91
37 82 52 -4 7 -3 8 4 4 16 -10 35 42 27 73 -5 20 -8 22 -16 10 -6 -9 -9 -10
-9 -2 0 7 -5 12 -11 10 -6 -1 -14 4 -16 11 -4 11 -1 12 16 3 12 -7 21 -8 21
-2 0 5 -6 12 -12 14 -9 4 -9 6 -1 6 20 2 53 -50 53 -82 0 -17 -11 -45 -26 -65
-24 -31 -25 -36 -10 -44 21 -12 46 -61 46 -91 0 -26 -34 -77 -51 -77 -6 0 -3
7 5 16 58 57 -3 154 -96 154 -38 0 -82 -26 -72 -42 4 -7 2 -8 -4 -4 -14 8 -36
-69 -26 -93 16 -36 13 -98 -6 -129 -20 -33 -86 -72 -107 -65 -7 3 -17 -7 -22
-20 -6 -14 -18 -28 -28 -31 -13 -4 -19 -16 -20 -40 -1 -40 -35 -91 -72 -105
-14 -6 -46 -12 -71 -13 -42 -1 -45 -3 -47 -29 -1 -15 4 -33 12 -39 8 -7 15
-16 15 -21 0 -15 -37 -10 -50 6 -11 13 -14 13 -25 -2 -8 -10 -17 -14 -22 -10
-4 5 0 13 10 18 9 6 17 17 17 26 0 9 10 28 23 41 l22 24 -25 -7 c-44 -13 -85
-41 -84 -58 1 -9 -2 -15 -6 -12 -5 3 -12 -5 -15 -17 -7 -20 -8 -19 -21 11 -9
22 -27 38 -56 51 -61 28 -76 25 -44 -6 14 -15 26 -32 26 -39 0 -7 7 -16 16
-19 8 -3 12 -11 8 -17 -4 -7 -11 -6 -22 5 -14 14 -17 14 -27 -1 -8 -10 -19
-14 -30 -9 -14 5 -16 9 -7 18 7 7 12 20 12 30 0 12 5 16 18 11 15 -5 15 -4 -2
13 -15 15 -34 19 -82 19 -56 0 -66 3 -94 30 -19 18 -33 43 -37 68 -4 28 -12
41 -29 47 -12 5 -26 15 -31 23 -4 8 -23 17 -40 20 -43 9 -81 34 -98 66 -15 31
-21 98 -10 124 8 20 -19 89 -42 109 -11 9 -17 9 -25 -3 -8 -11 -9 -11 -4 4 5
14 -1 17 -39 17 -35 0 -52 -6 -75 -27 -37 -34 -49 -88 -26 -118 l16 -20 -7 20
c-6 17 -4 18 9 8 8 -7 18 -10 21 -6 4 3 7 1 7 -5 0 -7 -7 -12 -16 -12 -8 0
-12 -5 -8 -11 4 -8 0 -8 -15 0 -26 14 -41 42 -41 76 0 30 24 81 42 88 10 4 8
11 -7 24 -59 55 -60 133 -4 164 15 8 19 8 15 0 -4 -6 0 -11 8 -11 9 0 16 -5
16 -12 0 -6 -3 -8 -7 -5 -3 4 -13 1 -21 -6 -13 -10 -15 -9 -9 8 7 20 7 20 -8
1 -8 -11 -15 -28 -15 -39 0 -28 33 -78 47 -73 7 3 12 0 10 -6 -1 -7 15 -17 36
-22 30 -8 45 -7 65 4 34 20 60 58 68 100 l7 35 -22 -27 c-12 -16 -29 -28 -37
-28 -8 0 -17 -7 -20 -15 -4 -8 -10 -15 -15 -15 -5 0 -9 7 -9 15 0 8 5 15 10
15 6 0 3 11 -6 25 -20 31 -9 53 16 30 11 -10 26 -14 41 -10 22 5 24 10 21 54
-3 31 2 60 12 79 19 36 73 72 110 72 14 0 25 3 25 8 -3 20 3 30 27 40 14 7 23
16 20 21 -4 5 -3 17 0 26 5 13 9 14 15 4 4 -7 4 -20 0 -28z m-1749 -1777 c65
-33 221 -65 351 -71 l128 -6 -6 -66 c-8 -75 -20 -99 -83 -158 -50 -48 -59 -51
-78 -25 -18 23 -17 57 2 76 14 15 14 20 -2 61 -22 59 -29 62 -44 22 -8 -17
-19 -39 -27 -48 -11 -13 -11 -24 2 -64 8 -27 12 -59 9 -71 -7 -27 -2 -30 60
-39 45 -6 48 -5 44 13 -4 13 4 28 22 46 16 14 31 26 34 26 3 0 6 -18 6 -40 0
-45 -19 -61 -79 -64 -20 -1 -46 -8 -58 -14 -20 -11 -32 -8 -93 23 -38 19 -75
35 -82 35 -7 -1 8 -12 35 -26 26 -13 47 -26 47 -29 0 -7 -103 26 -140 45 -52
27 -77 59 -89 118 -12 57 -15 254 -4 265 9 9 10 9 45 -9z m2202 -531 c9 -95
25 -334 36 -530 23 -412 26 -440 50 -453 10 -5 84 -8 166 -6 287 8 544 61 871
179 l122 44 21 -81 c12 -44 42 -182 65 -306 67 -350 122 -571 180 -727 l24
-62 -62 -56 c-75 -68 -164 -112 -357 -175 -234 -77 -614 -171 -745 -184 -28
-3 -88 -17 -135 -32 -170 -52 -200 -56 -375 -44 -88 5 -227 10 -310 10 -82 0
-199 5 -260 10 -242 20 -432 41 -460 49 -16 5 -64 17 -105 26 -89 21 -376 138
-406 166 -20 19 -43 103 -59 214 -6 46 -24 398 -26 523 -1 45 -6 82 -10 82 -5
0 -9 -3 -9 -7 0 -5 -11 -62 -25 -128 -14 -66 -31 -196 -40 -290 -8 -93 -18
-194 -21 -222 l-5 -53 -32 16 c-49 25 -98 64 -92 74 3 5 0 12 -6 15 -13 9 -5
132 21 325 16 117 121 675 136 722 4 12 15 16 45 15 l39 -2 4 130 c2 80 12
170 25 235 28 134 94 388 120 460 l20 55 1 -400 c2 -431 6 -500 30 -500 8 0
33 -5 54 -12 35 -12 245 -44 581 -88 190 -25 492 -31 606 -12 52 9 117 19 144
22 76 10 113 29 121 62 4 15 9 32 12 37 2 5 6 45 8 90 2 44 8 200 15 346 6
153 8 345 4 455 -4 105 -5 188 -2 185 3 -3 12 -83 21 -177z"/>
<path d="M4295 9860 c13 -5 1 -8 -35 -7 -117 0 -246 -72 -341 -192 -79 -98
-82 -101 -131 -101 -39 0 -51 -13 -22 -24 9 -3 42 -6 75 -6 53 0 59 -2 59 -20
0 -50 61 -143 112 -171 15 -8 15 -5 -3 25 -23 39 -35 126 -25 178 5 27 19 44
64 77 56 43 171 106 178 99 2 -2 -4 -28 -12 -58 -38 -139 -27 -306 29 -431 27
-60 101 -159 119 -159 6 0 1 11 -12 25 -27 29 -21 40 22 40 27 0 33 5 44 38
19 54 72 124 99 129 13 3 33 -3 46 -13 30 -23 97 -25 127 -3 30 21 54 11 97
-38 38 -45 41 -55 24 -91 -14 -32 -35 -41 -166 -72 -158 -39 -329 -37 -384 4
-32 24 -40 14 -11 -12 41 -37 204 -48 339 -22 88 17 234 63 279 89 28 17 25
17 -23 2 -13 -4 -23 -6 -23 -4 0 2 9 32 21 68 23 75 35 229 22 280 -6 24 -16
36 -34 40 -30 7 -31 31 -3 45 19 9 20 13 9 46 -7 20 -20 50 -29 67 -9 18 -13
32 -9 32 5 0 54 -25 111 -54 56 -30 102 -51 102 -46 0 4 -21 31 -46 59 -75 83
-230 146 -419 170 -104 13 -276 21 -250 11z"/>
<path d="M6082 9859 c-56 -10 -164 -52 -222 -88 -35 -21 -26 -30 11 -11 10 6
-10 -27 -45 -74 -36 -46 -62 -87 -59 -90 3 -3 1 -12 -6 -20 -9 -11 -9 -15 0
-18 7 -2 46 31 87 74 58 60 86 82 129 98 31 11 57 19 58 18 2 -2 -10 -41 -26
-88 -61 -181 -23 -419 78 -481 18 -11 33 -23 33 -26 0 -13 -81 7 -109 26 -37
26 -50 27 -26 1 38 -42 161 -62 310 -49 55 5 119 14 143 20 51 14 70 35 22 24
l-33 -7 26 33 c50 68 97 194 97 262 0 29 -21 37 -120 44 -69 4 -95 17 -70 33
25 16 92 12 112 -7 14 -13 21 -14 30 -5 7 7 20 12 31 12 13 0 17 5 13 18 -2 9
-8 37 -11 62 l-7 45 20 -19 c33 -29 45 -80 39 -165 l-5 -76 15 45 c8 25 18 61
22 80 7 36 12 38 66 25 l30 -7 -30 19 c-38 25 -85 71 -158 155 -104 121 -258
168 -445 137z m172 -509 c40 -69 112 -83 158 -31 28 32 30 32 49 15 24 -22 24
-45 -1 -93 -36 -71 -65 -87 -173 -94 -95 -6 -163 5 -151 24 3 6 -11 28 -30 50
-41 45 -40 53 16 105 67 63 104 70 132 24z"/>
<path d="M3445 1115 c-100 -22 -115 -31 -115 -64 0 -24 -3 -28 -20 -24 -32 8
-24 -23 13 -51 52 -39 108 -49 237 -42 l115 6 32 37 c62 69 38 101 -87 118
-30 4 -64 14 -75 21 -23 16 -21 16 -100 -1z"/>
</g>
</svg>
