<?xml version="1.0" standalone="no"?>
<!DOCTYPE svg PUBLIC "-//W3C//DTD SVG 20010904//EN"
 "http://www.w3.org/TR/2001/REC-SVG-20010904/DTD/svg10.dtd">
<svg version="1.0" xmlns="http://www.w3.org/2000/svg"
 width="1000.000000pt" height="1414.000000pt" viewBox="0 0 1000.000000 1414.000000"
 preserveAspectRatio="xMidYMid meet">

<g transform="translate(0.000000,1414.000000) scale(0.100000,-0.100000)"
fill="#000000" stroke="none">
<path d="M0 7070 l0 -7070 5000 0 5000 0 0 7070 0 7070 -5000 0 -5000 0 0
-7070z m4791 6006 c118 -31 179 -87 179 -164 0 -36 -6 -49 -41 -87 -40 -43
-78 -61 -171 -80 -16 -3 -28 -10 -28 -15 0 -12 104 -13 145 -2 27 8 32 6 51
-23 l21 -32 -61 4 c-34 3 -108 -3 -166 -12 -130 -21 -220 -30 -220 -21 0 21
24 46 44 46 13 0 29 6 35 14 9 10 4 18 -24 37 -44 30 -74 89 -85 169 -10 72 3
128 26 109 19 -15 42 -5 53 25 17 43 138 59 242 32z m-351 -56 c-6 -11 -15
-20 -21 -20 -6 0 -6 7 1 20 6 11 15 20 21 20 6 0 6 -7 -1 -20z m1600 -2255
c426 -38 753 -89 1200 -187 102 -22 208 -49 237 -60 29 -10 57 -17 63 -13 5 3
10 3 10 -2 0 -4 13 -8 29 -9 16 -1 37 -8 45 -17 14 -14 96 -37 131 -37 11 0
12 -6 4 -29 -18 -51 -26 -52 -147 -21 -61 16 -190 45 -284 65 -751 152 -1522
188 -2368 109 -912 -85 -2032 -307 -2610 -518 -52 -19 -112 -42 -132 -50 l-38
-16 0 61 c0 49 3 60 14 56 8 -3 68 20 134 53 198 97 526 222 787 300 598 178
1296 289 2095 334 134 8 671 -5 830 -19z m370 -210 c203 -19 328 -35 356 -46
47 -17 91 -383 64 -532 -7 -40 -34 -140 -61 -223 -27 -83 -49 -161 -49 -173 0
-11 -3 -21 -6 -21 -21 0 -82 52 -146 123 -40 45 -80 87 -88 94 -55 42 -57 45
-23 29 17 -9 41 -29 53 -46 21 -30 40 -39 40 -20 0 18 -63 81 -99 99 -20 10
-72 27 -115 36 -91 20 -217 16 -301 -10 -65 -20 -208 -97 -203 -110 1 -5 6 -9
11 -7 16 5 -37 -84 -67 -112 -20 -19 -27 -31 -18 -34 10 -3 10 -7 0 -20 -10
-12 -10 -16 0 -19 6 -3 9 -10 6 -16 -4 -7 31 26 77 74 61 62 97 90 132 103 27
10 50 16 52 14 3 -2 -7 -38 -21 -79 -24 -68 -25 -84 -21 -199 7 -172 30 -236
106 -287 33 -22 33 -23 9 -23 -13 0 -47 11 -73 25 -51 25 -66 26 -46 1 17 -20
93 -44 167 -52 72 -7 264 12 311 31 40 17 47 40 7 25 -38 -15 -40 -13 -13 18
50 56 99 183 99 258 0 37 -3 43 -22 46 -13 2 -23 10 -23 18 0 8 10 16 23 18
24 4 26 16 13 75 -9 38 -9 38 10 21 28 -26 41 -87 34 -160 -4 -35 -5 -64 -2
-64 6 0 47 127 47 146 0 10 10 9 44 -3 l44 -17 4 -185 c4 -175 7 -195 42 -331
34 -131 36 -150 27 -201 -27 -156 -189 -356 -410 -508 -220 -150 -574 -281
-942 -347 -158 -28 -373 -7 -668 67 -189 47 -238 76 -389 236 -69 73 -139 154
-155 180 -17 27 -61 85 -98 130 -37 46 -94 131 -125 190 -31 60 -93 171 -138
248 -112 195 -165 299 -231 453 l-57 134 10 116 c12 127 33 200 101 345 47
104 137 264 153 273 15 10 555 98 778 128 271 37 431 54 655 71 370 28 470 37
475 42 9 10 494 -6 660 -22z m51 -1015 c34 -18 21 -30 -33 -30 -64 0 -90 12
-62 29 24 13 70 14 95 1z m-3166 -75 c29 -14 75 -49 103 -79 100 -106 173
-142 186 -93 5 17 22 -11 84 -138 157 -319 325 -575 554 -842 49 -57 85 -103
82 -103 -24 0 -301 160 -489 282 -172 111 -172 111 -213 103 -20 -4 -49 -13
-64 -21 -36 -19 -155 -18 -231 2 -216 56 -429 280 -444 466 -6 67 20 186 54
251 25 49 91 123 135 152 91 60 148 65 243 20z m3147 -153 c-7 -2 -10 -8 -6
-13 3 -5 0 -9 -5 -9 -13 0 -13 3 -5 24 3 9 11 13 17 9 8 -5 7 -8 -1 -11z m-1
-101 c-12 -22 -50 -48 -85 -57 -22 -5 -26 -3 -26 14 0 25 12 33 65 48 57 16
57 16 46 -5z m-223 -50 c4 -24 -2 -25 -47 -10 -35 12 -39 23 -14 37 24 14 57
-1 61 -27z m-1698 -1138 c52 -25 230 -73 275 -74 16 0 53 -7 80 -14 l50 -14
-80 5 c-184 13 -329 43 -365 76 -19 18 -29 54 -12 46 4 -2 27 -14 52 -25z
m736 -1811 c1 -7 0 -8 -3 -2 -2 5 -9 8 -14 4 -5 -3 -9 0 -9 6 0 15 23 7 26 -8z
m457 -447 c-3 -9 -8 -14 -10 -11 -3 3 -2 9 2 15 9 16 15 13 8 -4z m-788 -25
c3 -6 -1 -7 -9 -4 -10 4 -16 1 -16 -7 0 -7 -3 -10 -6 -6 -7 7 4 27 16 27 5 0
12 -4 15 -10z m433 -201 c-3 -8 -7 -3 -11 10 -4 17 -3 21 5 13 5 -5 8 -16 6
-23z m1518 -1021 c-8 -70 -38 -134 -89 -193 l-35 -40 -37 18 c-25 12 -35 21
-28 28 7 7 19 6 38 -3 24 -11 29 -10 41 7 9 12 12 32 7 59 -11 74 -23 85 -20
19 1 -34 -1 -64 -4 -67 -8 -8 -99 79 -99 95 0 8 21 22 48 31 26 10 76 38 112
62 36 25 67 45 69 45 2 1 0 -27 -3 -61z m-3519 -149 c50 -13 126 -23 212 -26
l133 -6 -4 -74 -3 -75 -63 -60 -63 -61 -19 21 c-24 26 -25 41 -4 70 14 20 14
27 -1 72 -9 28 -21 50 -26 50 -4 0 -20 -24 -33 -53 -23 -47 -24 -57 -14 -92 6
-22 12 -53 12 -70 1 -25 6 -30 34 -36 19 -4 39 -12 45 -19 9 -9 6 -10 -15 -5
-18 5 -28 3 -28 -4 0 -19 -43 -12 -100 17 -73 37 -90 43 -90 32 0 -5 17 -18
38 -29 49 -26 36 -26 -35 0 -81 30 -120 62 -132 107 -16 59 -24 185 -17 245
l7 55 44 -19 c25 -11 79 -29 122 -40z m166 -205 c-5 -13 -8 -12 -24 2 -10 9
-15 22 -12 30 5 13 8 12 24 -2 10 -9 15 -22 12 -30z m121 -126 c-3 -10 -9 -16
-14 -13 -5 3 -11 1 -15 -5 -3 -5 -12 -10 -18 -10 -22 0 -12 48 14 69 24 19 24
19 32 -1 4 -12 5 -29 1 -40z m3116 -1300 c54 -288 105 -501 156 -657 24 -74
44 -138 44 -143 0 -12 -151 -130 -158 -123 -3 3 -27 99 -54 213 -40 172 -207
813 -224 855 -3 8 27 20 93 38 54 13 99 24 101 23 2 -1 20 -94 42 -206z m-162
-348 c136 -557 145 -601 136 -610 -10 -9 -216 -82 -219 -78 -4 7 -128 478
-170 648 -51 205 -85 384 -85 440 0 33 4 38 28 44 15 3 63 17 107 30 l80 24
11 -41 c6 -23 57 -229 112 -457z m-1100 423 l92 -17 0 -31 c0 -16 11 -133 25
-260 13 -126 31 -340 40 -475 8 -135 20 -297 26 -360 18 -181 22 -162 -41
-180 -30 -8 -61 -19 -69 -24 -7 -5 -53 -11 -101 -14 l-87 -5 -6 93 c-4 51 -7
204 -7 339 0 241 -7 414 -32 759 -15 217 -22 209 160 175z m-204 -25 c8 -46
22 -661 24 -1032 l3 -309 -33 7 c-18 4 -71 8 -118 9 l-85 2 -7 110 c-18 279
-39 712 -45 941 l-6 252 49 7 c27 3 83 15 124 25 41 10 78 19 82 19 4 1 9 -14
12 -31z m921 -25 c21 -203 83 -494 184 -866 56 -208 57 -212 37 -220 -94 -37
-596 -150 -647 -145 -44 4 -46 15 -64 293 -19 293 -39 496 -71 710 -14 94 -28
191 -31 218 l-6 47 135 0 135 0 7 -37 c3 -21 6 -56 6 -78 0 -22 16 -148 35
-280 20 -132 52 -359 71 -504 19 -145 39 -273 45 -283 5 -10 19 -18 29 -18 16
0 20 7 20 31 0 57 -60 491 -110 791 -28 165 -50 317 -50 338 l0 37 128 10 c70
5 130 10 134 11 4 1 9 -24 13 -55z m-2192 28 l24 -9 6 -334 c4 -183 10 -389
13 -458 4 -69 4 -123 1 -120 -3 3 -15 95 -26 205 -17 170 -29 312 -55 668 -4
60 -2 63 37 48z m280 -39 l102 -7 6 -90 c4 -49 12 -270 18 -490 12 -420 24
-578 46 -632 l14 -33 -52 0 c-54 1 -171 19 -242 39 l-41 11 -12 144 c-14 154
-52 907 -52 1017 l0 66 55 -9 c31 -4 102 -12 158 -16z m687 -284 c0 -167 4
-377 10 -468 5 -91 12 -249 16 -352 l7 -188 -101 0 c-55 0 -103 4 -106 9 -6 9
-16 208 -41 811 -8 201 -18 388 -21 417 l-7 51 49 7 c27 3 56 8 64 9 8 2 41 4
73 5 l57 1 0 -302z m-267 160 c4 -66 7 -191 7 -277 0 -167 15 -636 26 -790 l6
-93 -48 6 c-27 3 -84 8 -126 12 -67 5 -76 8 -69 23 5 9 3 47 -5 91 -7 41 -18
201 -24 355 -10 271 -34 651 -47 740 l-6 44 119 4 c66 1 128 4 140 5 20 2 21
-4 27 -120z m1691 -1291 c23 -17 17 -51 -10 -55 -25 -4 -59 32 -51 53 8 18 37
20 61 2z m-2086 -73 c3 -22 -21 -39 -39 -28 -11 6 -12 38 -2 48 13 13 38 1 41
-20z m-84 -10 c21 -8 20 -29 -1 -65 -12 -20 -24 -29 -38 -27 -28 4 -31 48 -5
76 23 25 22 24 44 16z m2244 -21 c5 -17 -26 -29 -40 -15 -6 6 -7 15 -3 22 9
14 37 9 43 -7z"/>
<path d="M4633 12743 c-20 -7 -15 -31 7 -38 10 -3 29 -1 40 5 38 20 -5 50 -47
33z"/>
<path d="M4320 10130 c-91 -10 -194 -19 -230 -20 -60 -2 -63 -3 -33 -12 24 -8
92 -5 260 11 126 12 257 21 293 21 36 0 72 5 80 10 24 16 -186 10 -370 -10z"/>
<path d="M6380 10134 c-27 -6 -316 -34 -355 -34 -31 0 -36 -3 -27 -12 10 -10
59 -8 235 10 252 26 333 40 227 40 -36 0 -72 -2 -80 -4z"/>
<path d="M4310 9874 c-87 -13 -145 -31 -220 -66 -71 -34 -98 -54 -165 -125
-76 -81 -135 -123 -171 -123 -13 0 -14 -3 -4 -15 8 -10 31 -15 66 -15 48 0 56
-3 63 -24 20 -52 75 -127 114 -156 38 -28 80 -44 47 -17 -32 25 -50 83 -50
161 l0 76 63 46 c34 25 87 59 118 74 l55 28 -19 -71 c-22 -87 -26 -222 -8
-297 21 -85 75 -193 121 -244 l43 -46 -34 6 c-19 4 -49 15 -68 26 -44 25 -48
19 -11 -17 27 -26 35 -28 143 -33 68 -3 142 0 183 7 93 17 277 77 306 101 26
22 20 25 -17 8 -14 -6 -27 -9 -30 -6 -3 2 4 40 15 83 20 79 28 257 12 281 -4
7 -16 13 -27 15 -27 6 -31 36 -6 44 27 8 26 18 -4 83 -13 28 -22 52 -19 52 2
0 49 -22 104 -50 55 -27 102 -50 105 -50 4 0 -3 13 -15 30 -12 16 -19 34 -16
39 9 14 -80 90 -130 111 -125 54 -429 100 -544 84z m456 -315 c10 -16 -15 -29
-56 -29 -48 0 -69 14 -44 29 25 14 91 14 100 0z m41 -401 c-5 -17 -20 -28 -58
-41 -29 -11 -55 -15 -60 -10 -13 13 19 53 44 53 12 1 33 7 47 15 30 16 34 13
27 -17z m-275 -36 c4 -1 12 -12 19 -23 16 -30 -2 -39 -83 -39 -57 0 -71 4 -97
26 -17 14 -31 29 -31 34 0 6 164 7 192 2z"/>
<path d="M4110 9202 c0 -9 30 -38 65 -62 11 -8 2 5 -20 28 -41 44 -45 47 -45
34z"/>
<path d="M5303 8486 c-35 -7 -66 -16 -70 -19 -15 -16 10 -18 59 -6 35 9 114
14 235 14 140 0 183 3 183 13 0 16 -320 15 -407 -2z"/>
<path d="M3155 9238 c-46 -39 -74 -96 -82 -159 -5 -41 -3 -49 10 -49 9 0 24
14 33 32 l17 32 22 -61 c12 -34 36 -79 53 -100 56 -71 193 -195 238 -215 46
-20 115 -21 121 -2 2 6 -7 9 -25 6 -74 -10 -209 94 -267 207 -58 115 -71 266
-27 302 33 26 27 39 -18 39 -30 0 -48 -7 -75 -32z"/>
<path d="M3280 4108 c0 -14 7 -32 17 -39 15 -13 16 -11 9 16 -10 41 -26 56
-26 23z"/>
</g>
</svg>
